<?xml version="1.0" encoding="UTF-8" standalone="no"?>
<!DOCTYPE svg PUBLIC "-//W3C//DTD SVG 20010904//EN"
"http://www.w3.org/TR/2001/REC-SVG-20010904/DTD/svg10.dtd">
<!-- Created with Inkscape (http://www.inkscape.org/) -->
<svg
   id="svg964"
   sodipodi:version="0.32"
   inkscape:version="0.38.1"
   width="48.000000pt"
   height="48.000000pt"
   sodipodi:docbase="/home/krosstok/Desktop"
   sodipodi:docname="gnome-fs-desktop.svg"
   xmlns="http://www.w3.org/2000/svg"
   xmlns:inkscape="http://www.inkscape.org/namespaces/inkscape"
   xmlns:sodipodi="http://sodipodi.sourceforge.net/DTD/sodipodi-0.dtd"
   xmlns:xlink="http://www.w3.org/1999/xlink">
  <defs
     id="defs966">
    <linearGradient
       id="linearGradient903">
      <stop
         style="stop-color:#f7f9f7;stop-opacity:1.0000000;"
         offset="0.0000000"
         id="stop904" />
      <stop
         style="stop-color:#e3e1e1;stop-opacity:1.0000000;"
         offset="1.0000000"
         id="stop905" />
    </linearGradient>
    <linearGradient
       id="linearGradient1021">
      <stop
         style="stop-color:#ccb37f;stop-opacity:1.0000000;"
         offset="0.0000000"
         id="stop1022" />
      <stop
         style="stop-color:#ffffff;stop-opacity:0.0000000;"
         offset="1.0000000"
         id="stop1023" />
    </linearGradient>
    <linearGradient
       xlink:href="#linearGradient1021"
       id="linearGradient1024"
       x1="46.121464"
       y1="41.514206"
       x2="-5.8125281"
       y2="78.944130"
       gradientUnits="userSpaceOnUse"
       gradientTransform="scale(1.176975,0.849636)" />
    <linearGradient
       xlink:href="#linearGradient903"
       id="linearGradient902"
       x1="47.543087"
       y1="25.098555"
       x2="28.666546"
       y2="37.252953"
       gradientUnits="userSpaceOnUse"
       gradientTransform="scale(0.895726,1.116412)" />
    <linearGradient
       xlink:href="#linearGradient1021"
       id="linearGradient924"
       x1="0.76282054"
       y1="0.73595506"
       x2="-0.15384616"
       y2="0.14606741" />
    <linearGradient
       xlink:href="#linearGradient903"
       id="linearGradient925"
       x1="-0.28000000"
       y1="0.25842696"
       x2="-0.10000000"
       y2="0.55617976" />
  </defs>
  <sodipodi:namedview
     id="base"
     pagecolor="#ffffff"
     bordercolor="#666666"
     borderopacity="1.0"
     inkscape:pageopacity="0.0"
     inkscape:pageshadow="2"
     inkscape:zoom="3.6821480"
     inkscape:cx="18.109722"
     inkscape:cy="21.727940"
     inkscape:window-width="801"
     inkscape:window-height="499"
     inkscape:window-x="219"
     inkscape:window-y="57"
     showguides="true"
     snaptoguides="true" />
  <g
     id="g864"
     transform="matrix(0.869117,0.000000,0.000000,0.876026,-1.084562,-3.635432)">
    <rect
       style="fill-opacity:0.46399996;fill-rule:evenodd;stroke-width:1.6875000;"
       id="rect1049"
       width="65.448024"
       height="47.541952"
       x="4.0776046"
       y="16.235597"
       ry="0.96124626" />
    <rect
       style="fill:#b39966;fill-rule:evenodd;stroke:#000000;stroke-width:2.2185703;stroke-dasharray:none;fill-opacity:1.0000000;"
       id="rect967"
       width="64.312653"
       height="46.996914"
       x="3.1717825"
       y="21.125568"
       ry="0.95022625"
       transform="matrix(0.972075,0.000000,0.000000,0.943782,0.998634,-3.702334)" />
    <path
       sodipodi:type="inkscape:offset"
       inkscape:radius="-1.4438632"
       inkscape:original="M 4.1250000 21.312500 C 3.5985746 21.312500 3.1562500 21.754825 3.1562500 22.281250 L 3.1562500 67.375000 C 3.1562500 67.901427 3.5985747 68.312500 4.1250000 68.312500 L 66.187500 68.312500 C 66.713923 68.312502 67.156250 67.901425 67.156250 67.375000 L 67.156250 22.281250 C 67.156248 21.754825 66.713925 21.312500 66.187500 21.312500 L 4.1250000 21.312500 z "
       style="fill:url(#linearGradient1024);fill-rule:evenodd;stroke-width:1.1875000;"
       id="path969"
       d="M 4.5937500,22.750000 L 4.5937500,66.875000 L 65.718750,66.875000 L 65.718750,22.750000 L 4.5937500,22.750000 z "
       transform="matrix(0.934285,0.000000,0.000000,0.929260,3.812203,-4.196758)" />
    <path
       style="fill:#616485;fill-rule:evenodd;stroke:#000000;stroke-width:1.1353860;stroke-dasharray:none;"
       d="M 1.8676799,20.040062 C 1.7639720,20.040062 1.6804813,20.139242 1.6804813,20.262437 L 1.6804813,30.815990 C 1.6804813,30.939185 1.7639720,31.038363 1.8676799,31.038363 L 14.285185,20.262437 C 14.285185,20.139242 14.201695,20.040062 14.097987,20.040062 L 1.8676799,20.040062 z "
       id="path977"
       sodipodi:nodetypes="ccccccc"
       transform="matrix(0.972075,0.000000,0.000000,0.943782,0.998634,-3.702334)" />
    <path
       style="fill:#616485;fill-rule:evenodd;stroke:#000000;stroke-width:1.0962348;stroke-dasharray:none;"
       d="M 2.5292838,69.122252 C 2.4280689,69.122252 2.3465852,69.033237 2.3465852,68.922668 L 2.3465852,59.450764 C 2.3465852,59.340194 2.4280689,59.251183 2.5292838,59.251183 L 14.648291,68.922668 C 14.648291,69.033237 14.566809,69.122252 14.465593,69.122252 L 2.5292838,69.122252 z "
       id="path984"
       sodipodi:nodetypes="ccccccc"
       transform="matrix(0.972075,0.000000,0.000000,0.943782,0.998634,-3.702334)" />
    <path
       style="fill:#616485;fill-rule:evenodd;stroke:#000000;stroke-width:1.1484364;stroke-dasharray:none;"
       d="M 68.145491,19.857044 C 68.254235,19.857044 68.341780,19.959397 68.341780,20.086533 L 68.341780,30.977685 C 68.341780,31.104821 68.254235,31.207171 68.145491,31.207171 L 55.125076,20.086533 C 55.125076,19.959397 55.212619,19.857044 55.321362,19.857044 L 68.145491,19.857044 z "
       id="path995"
       sodipodi:nodetypes="ccccccc"
       transform="matrix(0.972075,0.000000,0.000000,0.943782,0.998634,-3.702334)" />
    <path
       style="fill:#616485;fill-rule:evenodd;stroke:#000000;stroke-width:1.1353860;stroke-dasharray:none;"
       d="M 67.791468,69.318151 C 67.903257,69.318151 67.993253,69.226100 67.993253,69.111758 L 67.993253,59.316669 C 67.993253,59.202328 67.903257,59.110278 67.791468,59.110278 L 54.406387,69.111758 C 54.406387,69.226100 54.496382,69.318151 54.608171,69.318151 L 67.791468,69.318151 z "
       id="path998"
       sodipodi:nodetypes="ccccccc"
       transform="matrix(0.972075,0.000000,0.000000,0.943782,0.998634,-3.702334)" />
    <path
       style="fill:#767a9b;fill-rule:evenodd;stroke:none;stroke-width:0.47684827;fill-opacity:1.0000000;"
       d="M 4.0968421,15.818041 C 4.0206621,15.818041 3.9593329,15.882332 3.9593329,15.962189 L 3.9593329,22.803189 C 3.9593329,22.883046 4.0206621,22.947334 4.0968421,22.947334 L 13.218284,15.962189 C 13.218284,15.882332 13.156956,15.818041 13.080776,15.818041 L 4.0968421,15.818041 z "
       id="path1065"
       sodipodi:nodetypes="ccccccc" />
    <path
       style="fill:#757a9e;fill-rule:evenodd;stroke:none;stroke-width:0.42879689;fill-opacity:1.0000000;"
       d="M 4.7063109,60.909623 C 4.6348620,60.909623 4.5773416,60.852179 4.5773416,60.780827 L 4.5773416,54.668419 C 4.5773416,54.597066 4.6348620,54.539625 4.7063109,54.539625 L 13.261268,60.780827 C 13.261268,60.852179 13.203750,60.909623 13.132300,60.909623 L 4.7063109,60.909623 z "
       id="path1067"
       sodipodi:nodetypes="ccccccc" />
    <path
       style="fill:#757a9c;fill-rule:evenodd;stroke:none;stroke-width:0.45637316;fill-opacity:1.0000000;"
       d="M 66.000121,61.104906 C 66.073427,61.104906 66.132442,61.038288 66.132442,60.955536 L 66.132442,53.866661 C 66.132442,53.783910 66.073427,53.717292 66.000121,53.717292 L 57.222786,60.955536 C 57.222786,61.038288 57.281801,61.104906 57.355107,61.104906 L 66.000121,61.104906 z "
       id="path1068"
       sodipodi:nodetypes="ccccccc" />
    <g
       id="g912"
       transform="translate(-1.920365,0.000000)">
      <rect
         style="fill:#000000;fill-opacity:0.36094674;fill-rule:evenodd;stroke-width:1.1250000;stroke:none;stroke-opacity:1.0000000;stroke-dasharray:none;"
         id="rect906"
         width="24.844721"
         height="31.445974"
         ry="0.0000000"
         x="14.282714"
         y="23.671198" />
      <rect
         style="fill:url(#linearGradient902);fill-opacity:1.0000000;fill-rule:evenodd;stroke-width:1.1250000;stroke:#000000;stroke-opacity:1.0000000;stroke-dasharray:none;"
         id="rect901"
         width="24.844721"
         height="30.965883"
         ry="0.0000000"
         x="12.842441"
         y="22.711015" />
      <rect
         style="fill:#a59c9f;fill-opacity:0.48520711;fill-rule:evenodd;stroke-width:3.0000000pt;"
         id="rect907"
         width="19.683741"
         height="0.96018243"
         x="15.122873"
         y="28.232063" />
      <rect
         style="fill:#a59c9f;fill-opacity:0.48520711;fill-rule:evenodd;stroke-width:3.0000000pt;"
         id="rect908"
         width="19.683741"
         height="0.96018243"
         x="15.122873"
         y="33.032976" />
      <rect
         style="fill:#a59c9f;fill-opacity:0.48520711;fill-rule:evenodd;stroke-width:3.0000000pt;"
         id="rect909"
         width="19.683741"
         height="0.96018243"
         x="15.122873"
         y="37.833886" />
      <rect
         style="fill:#a59c9f;fill-opacity:0.48520711;fill-rule:evenodd;stroke-width:3.0000000pt;"
         id="rect910"
         width="19.683741"
         height="0.96018243"
         x="15.122873"
         y="42.634797" />
      <rect
         style="fill:#a59c9f;fill-opacity:0.48520711;fill-rule:evenodd;stroke-width:3.0000000pt;"
         id="rect911"
         width="19.683741"
         height="0.96018243"
         x="15.122873"
         y="47.435708" />
    </g>
    <path
       style="fill:#757a9c;fill-rule:evenodd;stroke-width:0.51543599;"
       d="M 66.671865,16.029600 C 66.750646,16.029600 66.814068,16.102200 66.814068,16.192377 L 66.814068,23.917492 C 66.814068,24.007670 66.750646,24.080267 66.671865,24.080267 L 57.239098,16.192377 C 57.239098,16.102200 57.302519,16.029600 57.381300,16.029600 L 66.671865,16.029600 z "
       id="path1066"
       sodipodi:nodetypes="ccccccc" />
    <path
       style="fill:#000000;fill-rule:evenodd;stroke:none;stroke-width:0.37500000;fill-opacity:0.48520711;"
       d="M 57.890070,24.870527 C 57.203521,24.966624 56.554644,25.180385 55.949299,25.513129 L 44.304672,47.178028 L 44.271211,47.514630 L 43.367749,47.208629 L 42.865826,53.726458 L 43.568518,54.001860 L 43.568518,54.063060 L 43.200441,54.001860 L 42.363902,56.786473 L 43.334287,56.266270 L 43.267364,56.755873 L 44.572365,55.593067 L 46.546598,54.491462 L 46.011212,54.399661 L 46.881214,53.481658 L 51.298141,49.473039 L 62.909305,27.808140 C 62.134595,25.431756 59.949718,24.582235 57.890070,24.870527 z "
       id="path970" />
    <g
       id="g952">
      <path
         style="fill:#d79d4d;fill-opacity:0.75000000;fill-rule:evenodd;stroke:#000000;stroke-width:1.3750000;"
         d="M 54.755239,22.474759 L 43.809540,44.609038 L 42.121053,54.381475 L 48.945890,46.938360 L 59.891589,24.804079 C 59.395662,21.568275 56.737453,21.115510 54.755239,22.474759 z "
         id="path921"
         sodipodi:nodetypes="cccccc"
         transform="matrix(1.217315,0.000000,0.111557,1.000000,-14.46371,0.339476)" />
      <path
         style="fill:url(#linearGradient924);fill-opacity:0.75000000;fill-rule:evenodd;stroke:#000000;stroke-width:0.13150212;"
         d="M 43.097067,44.616838 L 42.076724,51.297691 L 44.130831,52.378006 L 48.265635,47.178720 L 43.097067,44.616838 z "
         id="path923"
         sodipodi:nodetypes="ccccc"
         transform="matrix(1.217315,0.000000,0.111557,1.000000,-14.46371,0.339476)" />
      <path
         style="fill-rule:evenodd;stroke:#000000;stroke-width:0.12528186;stroke-opacity:0.45562127;"
         d="M 42.329455,51.555104 L 41.420314,54.396732 L 44.845716,52.077362 L 42.329455,51.555104 z "
         id="path922"
         sodipodi:nodetypes="cccc"
         transform="matrix(1.217315,0.000000,0.111557,1.000000,-14.46371,0.339476)" />
      <path
         style="fill:#eac668;fill-opacity:0.75000000;fill-rule:evenodd;stroke-width:0.69960541;"
         d="M 54.207560,27.140246 L 45.016151,44.757860 L 47.990255,46.057568 L 57.841044,28.147410 C 57.394725,25.529129 55.991490,26.040397 54.207560,27.140246 z "
         id="path926"
         sodipodi:nodetypes="ccccc"
         transform="matrix(1.217315,0.000000,0.111557,1.000000,-14.46371,0.339476)" />
      <path
         style="fill:#f6741c;fill-rule:evenodd;stroke:#000000;stroke-width:0.37500000;"
         d="M 54.731798,22.711151 L 54.491570,23.347519 L 59.171271,25.012577 L 59.411498,24.376208 C 58.959662,22.063174 56.537782,21.739526 54.731798,22.711151 z "
         id="path927"
         sodipodi:nodetypes="ccccc"
         transform="matrix(1.217315,0.000000,0.111557,1.000000,-14.46371,0.339476)" />
    </g>
  </g>
</svg>
