/* XPM */
static char * start_menu_xpm[] = {
"24 24 150 2",
"  	c None",
". 	c #894558",
"+ 	c #523F74",
"@ 	c #784361",
"# 	c #8B4557",
"$ 	c #7F425E",
"% 	c #FF5C1E",
"& 	c #9F504D",
"* 	c #A3504C",
"= 	c #FF5E1B",
"- 	c #60406E",
"; 	c #F96A21",
"> 	c #FFA61C",
", 	c #DF692E",
"' 	c #9E414F",
") 	c #9E3F4E",
"! 	c #D86732",
"~ 	c #FFA71B",
"{ 	c #F66C22",
"] 	c #CD4B37",
"^ 	c #FFC61C",
"/ 	c #FFD91E",
"( 	c #FB9220",
"_ 	c #D94E30",
": 	c #533D74",
"< 	c #C84D39",
"[ 	c #FC8F1F",
"} 	c #FFD61E",
"| 	c #FFD21C",
"1 	c #BA5741",
"2 	c #7E425E",
"3 	c #FFA31A",
"4 	c #FFFA1E",
"5 	c #FFF01E",
"6 	c #FFBF1D",
"7 	c #F26F24",
"8 	c #9B4B50",
"9 	c #F26724",
"0 	c #FFB61B",
"a 	c #FFEF1E",
"b 	c #FFFB1E",
"c 	c #8C4D57",
"d 	c #3F3D7E",
"e 	c #FF7E1C",
"f 	c #FFDF1D",
"g 	c #FFAA1B",
"h 	c #FFDB1D",
"i 	c #FFF81E",
"j 	c #FFF71E",
"k 	c #FE951F",
"l 	c #6C4267",
"m 	c #000000",
"n 	c #D65F33",
"o 	c #FFDE1D",
"p 	c #FFEE1E",
"q 	c #DE762F",
"r 	c #FFF91E",
"s 	c #FFFC1E",
"t 	c #FFD81E",
"u 	c #C7603A",
"v 	c #040300",
"w 	c #272604",
"x 	c #B8B515",
"y 	c #FFCF1E",
"z 	c #DC6530",
"A 	c #291D38",
"B 	c #DB5630",
"C 	c #D8D319",
"D 	c #232204",
"E 	c #FFF51E",
"F 	c #FFC81D",
"G 	c #0F0603",
"H 	c #FFB91E",
"I 	c #8A8710",
"J 	c #1A1903",
"K 	c #020100",
"L 	c #9A444D",
"M 	c #682F3F",
"N 	c #1D1603",
"O 	c #080700",
"P 	c #F3EF1C",
"Q 	c #0C0B01",
"R 	c #BCB816",
"S 	c #FD961F",
"T 	c #B35044",
"U 	c #000206",
"V 	c #0A0404",
"W 	c #040200",
"X 	c #261D04",
"Y 	c #B39D15",
"Z 	c #FFEA1E",
"` 	c #79710E",
" .	c #0F0E01",
"..	c #706D0D",
"+.	c #050400",
"@.	c #FFE91E",
"#.	c #FFCA1D",
"$.	c #FF9E1C",
"%.	c #682915",
"&.	c #030203",
"*.	c #7D435F",
"=.	c #DE4F2F",
"-.	c #E95929",
";.	c #FC5D1F",
">.	c #FD6F1F",
",.	c #FD741F",
"'.	c #FD821F",
").	c #FE8B1F",
"!.	c #FFC71E",
"~.	c #FFFD1E",
"{.	c #FFE11E",
"].	c #FE901E",
"^.	c #FD761F",
"/.	c #FC731F",
"(.	c #FE641E",
"_.	c #F05925",
":.	c #DF552E",
"<.	c #DB4C30",
"[.	c #AB4848",
"}.	c #8E4556",
"|.	c #313D85",
"1.	c #2A3787",
"2.	c #693C69",
"3.	c #633B6D",
"4.	c #8B3D58",
"5.	c #FF911B",
"6.	c #FFF31E",
"7.	c #FFBC1B",
"8.	c #B34C44",
"9.	c #293688",
"0.	c #DF5F2E",
"a.	c #F68822",
"b.	c #65416B",
"c.	c #874A5A",
"d.	c #FFAB1A",
"e.	c #FFD71D",
"f.	c #C5613B",
"g.	c #E97829",
"h.	c #FFEC1E",
"i.	c #FDAB1F",
"j.	c #AA4549",
"k.	c #BC5640",
"l.	c #FFBD1E",
"m.	c #F47A23",
"n.	c #9D3F4F",
"o.	c #F89221",
"p.	c #D54E33",
"q.	c #F14E25",
"r.	c #774262",
"s.	c #83445C",
"                                                ",
"        . +                       @ #           ",
"        $ % &                   * = -           ",
"          ; > , '           ) ! ~ {             ",
"          ] ^ / ( _ :     < [ } | 1             ",
"          2 3 4 5 6 7 8 9 0 a b 0 c             ",
"          d e a b 4 f g h i b j k l             ",
"  m m m m   n o 4 4 4 j 4 4 4 p q               ",
"m m     m   m m r 4 4 4 4 4 s t u         m m   ",
"m m         m m m 4 m m v w x y z m m m m m m m ",
"  m m m A B m m 4 4 4 4 C m D E F m m     m m   ",
"      m G H m m 4 4 I J K m K 4 b m m L   m m   ",
"m   M m N b O m P 4 Q m R m m b s m m S T m m   ",
"U V W X Y Z `  .m 4 ..+.m m m p @.m m #.$.%.&.m ",
"*.=.-.;.>.,.,.'.).!.~.4 4 {.].^./.(._.:.<.[.}.|.",
"          1.2.3.4.5.6.4 r 7.8.  9.              ",
"                  0.h 4 6.a.b.                  ",
"                  c.d.r e.f.                    ",
"                    g.h.i.j.                    ",
"                    k.l.m.                      ",
"                    n.o.p.                      ",
"                      q.r.                      ",
"                      s.                        ",
"                                                "};
